<svg width="1024" height="1024" viewBox="0 0 1024 1024" xmlns="http://www.w3.org/2000/svg">
  <defs>
    <linearGradient id="bgGradPastel" x1="0%" y1="0%" x2="100%" y2="100%">
      <stop offset="0%" style="stop-color:#FBCFE8"/>
      <stop offset="100%" style="stop-color:#F9A8D4"/>
    </linearGradient>
  </defs>
  
  <!-- Background -->
  <rect x="0" y="0" width="1024" height="1024" rx="228" ry="228" fill="url(#bgGradPastel)"/>
  
  <!-- Speech bubble -->
  <path d="M512 180 
           C280 180 160 320 160 480 
           C160 640 280 760 440 780
           L380 900
           L520 780
           C760 760 864 640 864 480 
           C864 320 744 180 512 180 Z" 
        fill="white"/>
  
  <!-- Waveform inside bubble -->
  <g fill="#EC4899">
    <rect x="280" y="420" width="36" height="120" rx="18"/>
    <rect x="352" y="360" width="36" height="240" rx="18"/>
    <rect x="424" y="300" width="36" height="360" rx="18"/>
    <rect x="496" y="340" width="36" height="280" rx="18"/>
    <rect x="568" y="380" width="36" height="200" rx="18"/>
    <rect x="640" y="340" width="36" height="280" rx="18"/>
    <rect x="712" y="400" width="36" height="160" rx="18"/>
  </g>
</svg>
